<?xml version="1.0" encoding="UTF-8" standalone="no"?>
<svg
   xmlns:dc="http://purl.org/dc/elements/1.1/"
   xmlns:cc="http://creativecommons.org/ns#"
   xmlns:rdf="http://www.w3.org/1999/02/22-rdf-syntax-ns#"
   xmlns:svg="http://www.w3.org/2000/svg"
   xmlns="http://www.w3.org/2000/svg"
   xmlns:sodipodi="http://sodipodi.sourceforge.net/DTD/sodipodi-0.dtd"
   xmlns:inkscape="http://www.inkscape.org/namespaces/inkscape"
   width="283.46pt"
   height="170.08pt"
   viewBox="0 0 283.46 170.08"
   version="1.1"
   id="svg6881"
   sodipodi:docname="aparovich_page_01.svg"
   inkscape:version="1.0.2-2 (e86c870879, 2021-01-15)">
  <metadata
     id="metadata6887">
    <rdf:RDF>
      <cc:Work
         rdf:about="">
        <dc:format>image/svg+xml</dc:format>
        <dc:type
           rdf:resource="http://purl.org/dc/dcmitype/StillImage" />
        <dc:title></dc:title>
      </cc:Work>
    </rdf:RDF>
  </metadata>
  <defs
     id="defs6885" />
  <sodipodi:namedview
     pagecolor="#ffffff"
     bordercolor="#666666"
     borderopacity="1"
     objecttolerance="10"
     gridtolerance="10"
     guidetolerance="10"
     inkscape:pageopacity="0"
     inkscape:pageshadow="2"
     inkscape:window-width="1920"
     inkscape:window-height="1002"
     id="namedview6883"
     showgrid="false"
     inkscape:zoom="1.7211424"
     inkscape:cx="50.869011"
     inkscape:cy="116.89982"
     inkscape:window-x="-8"
     inkscape:window-y="-8"
     inkscape:window-maximized="1"
     inkscape:current-layer="surface1" />
  <g
     id="surface1">
    <path
       style="fill:#ffffff;fill-opacity:1;fill-rule:nonzero;stroke:none"
       d="M 14.171875,155.90625 H 269.29297 V 14.175781 H 14.171875 Z m 0,0"
       id="path2" />
    <path
       style=" stroke:none;fill-rule:nonzero;fill:rgb(86.299133%,86.698914%,87.098694%);fill-opacity:1;"
       d="M 188.351563 134.535156 L 246.179688 134.535156 L 227.535156 100.613281 "
       id="path4" />
    <path
       style=" stroke:none;fill-rule:nonzero;fill:rgb(7.099915%,30.599976%,54.899597%);fill-opacity:1;"
       d="M 214.71875 127.445313 L 216.191406 115.605469 L 213.097656 115.605469 L 212.5625 119.882813 L 208.894531 119.882813 L 209.425781 115.605469 L 206.332031 115.605469 L 204.859375 127.445313 L 207.953125 127.445313 L 208.542969 122.707031 L 212.214844 122.707031 L 211.621094 127.445313 Z M 199.988281 121.339844 L 199.226563 127.445313 L 202.320313 127.445313 L 203.800781 115.554688 L 202.839844 115.554688 L 195.9375 121.386719 L 196.660156 115.605469 L 193.566406 115.605469 L 192.085938 127.476563 L 193 127.476563 Z M 181.683594 127.476563 L 184.542969 127.476563 L 184.6875 126.308594 C 187.761719 126.210938 190.453125 124.839844 190.867188 121.507813 C 191.285156 118.175781 189.039063 116.789063 185.90625 116.671875 L 186.046875 115.554688 L 183.15625 115.554688 L 183.015625 116.671875 C 179.957031 116.789063 177.242188 118.34375 176.847656 121.507813 C 176.453125 124.667969 178.78125 126.210938 181.828125 126.308594 Z M 179.941406 121.507813 C 180.152344 119.816406 181.410156 119.375 182.734375 119.324219 L 182.1875 123.707031 C 180.964844 123.621094 179.730469 123.199219 179.941406 121.507813 M 187.773438 121.507813 C 187.5625 123.199219 186.238281 123.621094 184.980469 123.707031 L 185.523438 119.324219 C 186.839844 119.375 187.984375 119.816406 187.773438 121.507813 "
       id="path6" />
    <path
       style=" stroke:none;fill-rule:nonzero;fill:rgb(93.299866%,17.999268%,34.498596%);fill-opacity:1;"
       d="M 245.355469 118.785156 L 243.84375 115.554688 L 240.496094 115.554688 L 240.441406 116.011719 L 243.234375 121.117188 L 238.671875 126.953125 L 238.617188 127.390625 L 242.101563 127.390625 L 244.726563 123.6875 L 244.828125 123.6875 L 246.546875 127.390625 L 249.996094 127.390625 L 250.050781 126.953125 L 246.957031 121.117188 L 251.007813 116.011719 L 251.066406 115.554688 L 247.734375 115.554688 L 245.421875 118.785156 Z M 229.007813 124.566406 L 228.660156 127.390625 L 237.601563 127.390625 L 237.953125 124.566406 Z M 229.589844 119.933594 L 229.25 122.640625 L 238.039063 122.640625 L 238.375 119.933594 Z M 238.925781 115.554688 L 230.132813 115.554688 L 229.796875 118.242188 L 238.589844 118.242188 Z M 221.621094 118.261719 L 220.480469 127.390625 L 223.894531 127.390625 L 225.035156 118.261719 L 228.207031 118.261719 L 228.542969 115.554688 L 218.492188 115.554688 L 218.152344 118.261719 "
       id="path8" />
    <path
       style=" stroke:none;fill-rule:evenodd;fill:rgb(25.498962%,25.099182%,25.898743%);fill-opacity:1;"
       d="M 246.75 140.84375 C 246.515625 141.101563 246.199219 141.230469 245.808594 141.230469 C 245.414063 141.230469 245.101563 141.101563 244.867188 140.84375 C 244.632813 140.585938 244.511719 140.238281 244.511719 139.800781 C 244.511719 139.367188 244.632813 139.019531 244.867188 138.757813 C 245.101563 138.503906 245.414063 138.375 245.808594 138.375 C 246.199219 138.375 246.515625 138.503906 246.75 138.757813 C 246.984375 139.019531 247.105469 139.367188 247.105469 139.800781 C 247.105469 140.238281 246.984375 140.585938 246.75 140.84375 M 246.46875 138.984375 C 246.308594 138.789063 246.085938 138.691406 245.808594 138.691406 C 245.53125 138.691406 245.3125 138.789063 245.148438 138.984375 C 244.988281 139.179688 244.910156 139.453125 244.910156 139.800781 C 244.910156 140.148438 244.988281 140.421875 245.148438 140.617188 C 245.3125 140.8125 245.53125 140.910156 245.808594 140.910156 C 246.085938 140.910156 246.308594 140.8125 246.46875 140.617188 C 246.628906 140.421875 246.707031 140.148438 246.707031 139.800781 C 246.707031 139.453125 246.628906 139.179688 246.46875 138.984375 M 244.0625 140.382813 C 244.0625 140.9375 243.632813 141.214844 242.773438 141.214844 C 242.460938 141.214844 242.1875 141.195313 241.957031 141.15625 L 241.957031 138.449219 C 242.210938 138.410156 242.46875 138.390625 242.730469 138.390625 C 243.15625 138.390625 243.460938 138.453125 243.644531 138.578125 C 243.824219 138.703125 243.914063 138.863281 243.914063 139.054688 C 243.914063 139.214844 243.859375 139.347656 243.75 139.453125 C 243.644531 139.5625 243.488281 139.636719 243.292969 139.679688 L 243.292969 139.6875 C 243.542969 139.722656 243.730469 139.804688 243.863281 139.925781 C 243.996094 140.046875 244.0625 140.199219 244.0625 140.382813 M 242.359375 139.570313 L 242.730469 139.570313 C 242.984375 139.570313 243.183594 139.527344 243.324219 139.441406 C 243.464844 139.355469 243.535156 139.242188 243.535156 139.09375 C 243.535156 138.8125 243.273438 138.671875 242.757813 138.671875 C 242.621094 138.671875 242.488281 138.679688 242.359375 138.703125 Z M 242.359375 140.902344 C 242.492188 140.921875 242.632813 140.933594 242.789063 140.933594 C 243.378906 140.933594 243.671875 140.742188 243.671875 140.355469 C 243.671875 140.007813 243.359375 139.832031 242.738281 139.832031 L 242.359375 139.832031 Z M 241.324219 138.75 L 240.320313 138.75 L 240.320313 141.175781 L 239.902344 141.175781 L 239.902344 138.75 L 238.898438 138.75 L 238.898438 138.429688 L 241.324219 138.429688 Z M 237.5 138.699219 C 237.191406 138.699219 236.949219 138.792969 236.777344 138.984375 C 236.605469 139.175781 236.519531 139.449219 236.519531 139.800781 C 236.519531 140.140625 236.609375 140.410156 236.792969 140.613281 C 236.972656 140.8125 237.210938 140.910156 237.5 140.910156 C 237.75 140.910156 237.984375 140.851563 238.210938 140.734375 L 238.316406 141.042969 C 238.050781 141.167969 237.773438 141.230469 237.484375 141.230469 C 237.078125 141.230469 236.746094 141.101563 236.492188 140.84375 C 236.238281 140.582031 236.109375 140.234375 236.109375 139.800781 C 236.109375 139.355469 236.234375 139.003906 236.476563 138.753906 C 236.71875 138.5 237.058594 138.375 237.484375 138.375 C 237.773438 138.375 238.050781 138.433594 238.316406 138.558594 L 238.210938 138.882813 C 237.972656 138.757813 237.738281 138.699219 237.5 138.699219 M 233.589844 139.949219 C 233.597656 140.25 233.6875 140.484375 233.863281 140.660156 C 234.039063 140.832031 234.269531 140.917969 234.550781 140.917969 C 234.824219 140.917969 235.09375 140.847656 235.359375 140.707031 L 235.464844 141.007813 C 235.171875 141.15625 234.855469 141.230469 234.515625 141.230469 C 234.121094 141.230469 233.800781 141.101563 233.558594 140.84375 C 233.316406 140.585938 233.195313 140.238281 233.195313 139.800781 C 233.195313 139.355469 233.304688 139.007813 233.535156 138.753906 C 233.761719 138.503906 234.070313 138.375 234.460938 138.375 C 234.84375 138.375 235.136719 138.496094 235.347656 138.734375 C 235.558594 138.976563 235.664063 139.324219 235.664063 139.777344 C 235.664063 139.820313 235.660156 139.878906 235.652344 139.949219 Z M 233.589844 139.644531 L 235.28125 139.644531 C 235.277344 139.335938 235.203125 139.101563 235.058594 138.933594 C 234.914063 138.769531 234.714844 138.6875 234.460938 138.6875 C 234.195313 138.6875 233.988281 138.769531 233.835938 138.9375 C 233.683594 139.105469 233.597656 139.339844 233.589844 139.644531 M 229.527344 140.847656 L 230.574219 140.847656 L 230.574219 138.429688 L 230.945313 138.429688 L 230.945313 140.847656 L 231.992188 140.847656 L 231.992188 138.429688 L 232.371094 138.429688 L 232.371094 140.847656 L 232.796875 140.847656 L 232.796875 141.8125 L 232.441406 141.8125 L 232.441406 141.175781 L 229.148438 141.175781 L 229.148438 138.429688 L 229.527344 138.429688 Z M 228.054688 139.855469 C 228.054688 139.527344 227.980469 139.269531 227.835938 139.082031 C 227.6875 138.890625 227.496094 138.796875 227.257813 138.796875 C 227 138.796875 226.800781 138.886719 226.648438 139.0625 C 226.5 139.238281 226.425781 139.484375 226.425781 139.800781 L 226.425781 139.871094 C 226.425781 140.1875 226.5 140.441406 226.648438 140.628906 C 226.800781 140.816406 226.996094 140.910156 227.238281 140.910156 C 227.492188 140.910156 227.691406 140.820313 227.835938 140.636719 C 227.980469 140.449219 228.054688 140.1875 228.054688 139.855469 M 227.257813 141.230469 C 226.871094 141.230469 226.570313 141.105469 226.359375 140.863281 C 226.144531 140.617188 226.039063 140.269531 226.039063 139.820313 L 226.039063 138.65625 C 226.039063 138.164063 226.15625 137.808594 226.394531 137.59375 C 226.632813 137.375 227.015625 137.265625 227.535156 137.265625 C 227.804688 137.265625 228.058594 137.246094 228.300781 137.210938 L 228.300781 137.527344 C 228.078125 137.5625 227.820313 137.582031 227.535156 137.582031 C 227.121094 137.582031 226.835938 137.660156 226.671875 137.816406 C 226.507813 137.972656 226.425781 138.246094 226.425781 138.636719 L 226.425781 138.941406 L 226.4375 138.941406 C 226.628906 138.632813 226.929688 138.480469 227.347656 138.480469 C 227.664063 138.480469 227.925781 138.605469 228.128906 138.851563 C 228.332031 139.101563 228.433594 139.433594 228.433594 139.855469 C 228.433594 140.292969 228.332031 140.628906 228.121094 140.867188 C 227.914063 141.109375 227.625 141.230469 227.257813 141.230469 M 225.105469 140.84375 C 224.867188 141.101563 224.554688 141.230469 224.164063 141.230469 C 223.769531 141.230469 223.457031 141.101563 223.222656 140.84375 C 222.984375 140.585938 222.867188 140.238281 222.867188 139.800781 C 222.867188 139.367188 222.984375 139.019531 223.222656 138.757813 C 223.457031 138.503906 223.769531 138.375 224.164063 138.375 C 224.554688 138.375 224.867188 138.503906 225.105469 138.757813 C 225.339844 139.019531 225.457031 139.367188 225.457031 139.800781 C 225.457031 140.238281 225.339844 140.585938 225.105469 140.84375 M 224.820313 138.984375 C 224.660156 138.789063 224.441406 138.691406 224.164063 138.691406 C 223.886719 138.691406 223.664063 138.789063 223.507813 138.984375 C 223.34375 139.179688 223.261719 139.453125 223.261719 139.800781 C 223.261719 140.148438 223.34375 140.421875 223.507813 140.617188 C 223.664063 140.8125 223.886719 140.910156 224.164063 140.910156 C 224.441406 140.910156 224.660156 140.8125 224.820313 140.617188 C 224.980469 140.421875 225.0625 140.148438 225.0625 139.800781 C 225.0625 139.453125 224.980469 139.179688 224.820313 138.984375 M 218.8125 139.949219 C 218.820313 140.25 218.910156 140.484375 219.085938 140.660156 C 219.265625 140.832031 219.492188 140.917969 219.773438 140.917969 C 220.046875 140.917969 220.316406 140.847656 220.582031 140.707031 L 220.6875 141.007813 C 220.390625 141.15625 220.074219 141.230469 219.738281 141.230469 C 219.34375 141.230469 219.023438 141.101563 218.78125 140.84375 C 218.535156 140.585938 218.414063 140.238281 218.414063 139.800781 C 218.414063 139.355469 218.53125 139.007813 218.757813 138.753906 C 218.984375 138.503906 219.292969 138.375 219.683594 138.375 C 220.066406 138.375 220.359375 138.496094 220.570313 138.734375 C 220.78125 138.976563 220.886719 139.324219 220.886719 139.777344 C 220.886719 139.820313 220.882813 139.878906 220.875 139.949219 Z M 218.8125 139.644531 L 220.503906 139.644531 C 220.5 139.335938 220.425781 139.101563 220.28125 138.933594 C 220.136719 138.769531 219.9375 138.6875 219.683594 138.6875 C 219.421875 138.6875 219.210938 138.769531 219.058594 138.9375 C 218.902344 139.105469 218.824219 139.339844 218.8125 139.644531 M 217.636719 140.84375 C 217.402344 141.101563 217.089844 141.230469 216.695313 141.230469 C 216.304688 141.230469 215.992188 141.101563 215.757813 140.84375 C 215.519531 140.585938 215.402344 140.238281 215.402344 139.800781 C 215.402344 139.367188 215.519531 139.019531 215.757813 138.757813 C 215.992188 138.503906 216.304688 138.375 216.695313 138.375 C 217.089844 138.375 217.402344 138.503906 217.636719 138.757813 C 217.875 139.019531 217.992188 139.367188 217.992188 139.800781 C 217.992188 140.238281 217.875 140.585938 217.636719 140.84375 M 217.355469 138.984375 C 217.195313 138.789063 216.976563 138.691406 216.695313 138.691406 C 216.417969 138.691406 216.199219 138.789063 216.039063 138.984375 C 215.878906 139.179688 215.800781 139.453125 215.800781 139.800781 C 215.800781 140.148438 215.878906 140.421875 216.039063 140.617188 C 216.199219 140.8125 216.417969 140.910156 216.695313 140.910156 C 216.976563 140.910156 217.195313 140.8125 217.355469 140.617188 C 217.515625 140.421875 217.597656 140.148438 217.597656 139.800781 C 217.597656 139.453125 217.515625 139.179688 217.355469 138.984375 M 212.820313 139.855469 L 212.820313 141.175781 L 212.410156 141.175781 L 212.410156 138.429688 L 212.820313 138.429688 L 212.820313 139.546875 L 214.382813 139.546875 L 214.382813 138.429688 L 214.792969 138.429688 L 214.792969 141.175781 L 214.382813 141.175781 L 214.382813 139.855469 Z M 211.394531 139.800781 C 211.394531 139.441406 211.324219 139.167969 211.179688 138.976563 C 211.035156 138.789063 210.835938 138.691406 210.578125 138.691406 C 210.335938 138.691406 210.140625 138.789063 209.988281 138.976563 C 209.839844 139.167969 209.765625 139.429688 209.765625 139.765625 L 209.765625 139.839844 C 209.765625 140.179688 209.839844 140.445313 209.992188 140.632813 C 210.144531 140.820313 210.339844 140.910156 210.578125 140.910156 C 210.832031 140.910156 211.027344 140.816406 211.175781 140.625 C 211.320313 140.433594 211.394531 140.15625 211.394531 139.800781 M 210.664063 141.230469 C 210.265625 141.230469 209.96875 141.070313 209.777344 140.746094 L 209.765625 140.746094 L 209.765625 142.339844 L 209.378906 142.339844 L 209.378906 138.429688 L 209.75 138.429688 L 209.757813 138.894531 L 209.765625 138.894531 C 209.960938 138.546875 210.261719 138.375 210.664063 138.375 C 211.011719 138.375 211.28125 138.496094 211.476563 138.742188 C 211.675781 138.988281 211.773438 139.339844 211.773438 139.800781 C 211.773438 140.253906 211.675781 140.605469 211.472656 140.855469 C 211.269531 141.101563 211 141.230469 210.664063 141.230469 M 206.671875 139.949219 C 206.679688 140.25 206.773438 140.484375 206.945313 140.660156 C 207.125 140.832031 207.351563 140.917969 207.636719 140.917969 C 207.90625 140.917969 208.175781 140.847656 208.445313 140.707031 L 208.550781 141.007813 C 208.253906 141.15625 207.9375 141.230469 207.597656 141.230469 C 207.203125 141.230469 206.882813 141.101563 206.640625 140.84375 C 206.398438 140.585938 206.277344 140.238281 206.277344 139.800781 C 206.277344 139.355469 206.390625 139.007813 206.617188 138.753906 C 206.84375 138.503906 207.152344 138.375 207.546875 138.375 C 207.925781 138.375 208.222656 138.496094 208.429688 138.734375 C 208.640625 138.976563 208.746094 139.324219 208.746094 139.777344 C 208.746094 139.820313 208.742188 139.878906 208.734375 139.949219 Z M 206.671875 139.644531 L 208.367188 139.644531 C 208.363281 139.335938 208.285156 139.101563 208.140625 138.933594 C 208 138.769531 207.800781 138.6875 207.546875 138.6875 C 207.28125 138.6875 207.070313 138.769531 206.917969 138.9375 C 206.765625 139.105469 206.683594 139.339844 206.671875 139.644531 M 203.695313 139.855469 L 203.695313 141.175781 L 203.28125 141.175781 L 203.28125 138.429688 L 203.695313 138.429688 L 203.695313 139.546875 L 205.257813 139.546875 L 205.257813 138.429688 L 205.667969 138.429688 L 205.667969 141.175781 L 205.257813 141.175781 L 205.257813 139.855469 Z M 202.320313 140.84375 C 202.085938 141.101563 201.769531 141.230469 201.378906 141.230469 C 200.988281 141.230469 200.675781 141.101563 200.441406 140.84375 C 200.203125 140.585938 200.085938 140.238281 200.085938 139.800781 C 200.085938 139.367188 200.203125 139.019531 200.441406 138.757813 C 200.675781 138.503906 200.988281 138.375 201.378906 138.375 C 201.769531 138.375 202.085938 138.503906 202.320313 138.757813 C 202.558594 139.019531 202.675781 139.367188 202.675781 139.800781 C 202.675781 140.238281 202.558594 140.585938 202.320313 140.84375 M 202.039063 138.984375 C 201.878906 138.789063 201.660156 138.691406 201.378906 138.691406 C 201.101563 138.691406 200.882813 138.789063 200.722656 138.984375 C 200.5625 139.179688 200.480469 139.453125 200.480469 139.800781 C 200.480469 140.148438 200.5625 140.421875 200.722656 140.617188 C 200.882813 140.8125 201.101563 140.910156 201.378906 140.910156 C 201.660156 140.910156 201.878906 140.8125 202.039063 140.617188 C 202.199219 140.421875 202.28125 140.148438 202.28125 139.800781 C 202.28125 139.453125 202.199219 139.179688 202.039063 138.984375 M 197.46875 140.636719 L 197.480469 140.636719 L 199.042969 138.429688 L 199.476563 138.429688 L 199.476563 141.175781 L 199.074219 141.175781 L 199.074219 138.964844 L 199.070313 138.964844 L 197.5 141.175781 L 197.066406 141.175781 L 197.066406 138.429688 L 197.46875 138.429688 Z M 196.023438 140.847656 L 196.484375 140.847656 L 196.484375 141.8125 L 196.128906 141.8125 L 196.128906 141.175781 L 193.695313 141.175781 L 193.695313 138.429688 L 194.082031 138.429688 L 194.082031 140.847656 L 195.636719 140.847656 L 195.636719 138.429688 L 196.023438 138.429688 Z M 191.1875 139.589844 L 192.515625 138.429688 L 193.019531 138.429688 L 191.492188 139.746094 L 193.0625 141.175781 L 192.5625 141.175781 L 191.1875 139.902344 L 191.179688 139.902344 L 191.179688 141.175781 L 190.769531 141.175781 L 190.769531 138.429688 L 191.179688 138.429688 L 191.179688 139.589844 Z M 189.347656 140.050781 L 187.71875 140.050781 L 187.332031 141.175781 L 186.894531 141.175781 L 188.304688 137.316406 L 188.78125 137.316406 L 190.1875 141.175781 L 189.738281 141.175781 Z M 188.539063 137.699219 L 188.527344 137.699219 L 187.832031 139.710938 L 189.230469 139.710938 Z M 188.539063 137.699219 "
       id="path10" />
    <path
       style=" stroke:none;fill-rule:nonzero;fill:rgb(25.498962%,25.099182%,25.898743%);fill-opacity:1;"
       d="M 44.894531 124.058594 L 44.882813 124.058594 L 44.207031 124.425781 L 44.101563 124.023438 L 44.957031 123.566406 L 45.402344 123.566406 L 45.402344 127.464844 L 44.894531 127.464844 "
       id="path226" />
    <path
       style=" stroke:none;fill-rule:nonzero;fill:rgb(25.498962%,25.099182%,25.898743%);fill-opacity:1;"
       d="M 48.09375 124.058594 L 48.082031 124.058594 L 47.402344 124.425781 L 47.300781 124.023438 L 48.152344 123.566406 L 48.601563 123.566406 L 48.601563 127.464844 L 48.09375 127.464844 "
       id="path228" />
    <path
       style=" stroke:none;fill-rule:nonzero;fill:rgb(25.498962%,25.099182%,25.898743%);fill-opacity:1;"
       d="M 50.640625 124.851563 C 50.640625 125.335938 50.9375 125.675781 51.390625 125.675781 C 51.746094 125.675781 52.019531 125.503906 52.160156 125.269531 C 52.1875 125.222656 52.207031 125.164063 52.207031 125.078125 C 52.207031 124.414063 51.960938 123.902344 51.410156 123.902344 C 50.960938 123.902344 50.640625 124.296875 50.640625 124.851563 M 50.449219 127.09375 C 50.5625 127.105469 50.695313 127.09375 50.875 127.074219 C 51.183594 127.035156 51.46875 126.90625 51.691406 126.699219 C 51.949219 126.464844 52.136719 126.121094 52.207031 125.660156 L 52.1875 125.660156 C 51.972656 125.921875 51.660156 126.078125 51.273438 126.078125 C 50.570313 126.078125 50.121094 125.550781 50.121094 124.886719 C 50.121094 124.148438 50.65625 123.5 51.453125 123.5 C 52.25 123.5 52.742188 124.148438 52.742188 125.144531 C 52.742188 126 52.453125 126.601563 52.070313 126.972656 C 51.769531 127.265625 51.355469 127.449219 50.9375 127.496094 C 50.742188 127.523438 50.578125 127.53125 50.449219 127.523438 "
       id="path230" />
    <path
       style=" stroke:none;fill-rule:nonzero;fill:rgb(25.498962%,25.099182%,25.898743%);fill-opacity:1;"
       d="M 54.488281 124.058594 L 54.476563 124.058594 L 53.796875 124.425781 L 53.695313 124.023438 L 54.546875 123.566406 L 54.996094 123.566406 L 54.996094 127.464844 L 54.488281 127.464844 "
       id="path232" />
    <path
       style=" stroke:none;fill-rule:nonzero;fill:rgb(25.498962%,25.099182%,25.898743%);fill-opacity:1;"
       d="M 57.140625 124.503906 C 57.140625 124.894531 57.433594 125.101563 57.882813 125.222656 C 58.21875 125.109375 58.476563 124.867188 58.476563 124.515625 C 58.476563 124.203125 58.289063 123.878906 57.816406 123.878906 C 57.378906 123.878906 57.140625 124.167969 57.140625 124.503906 M 58.589844 126.449219 C 58.589844 125.976563 58.261719 125.75 57.734375 125.601563 C 57.277344 125.730469 57.03125 126.03125 57.03125 126.402344 C 57.015625 126.796875 57.3125 127.148438 57.8125 127.148438 C 58.285156 127.148438 58.589844 126.855469 58.589844 126.449219 M 56.492188 126.476563 C 56.492188 125.984375 56.785156 125.636719 57.265625 125.433594 L 57.261719 125.414063 C 56.828125 125.210938 56.644531 124.875 56.644531 124.539063 C 56.644531 123.921875 57.164063 123.5 57.847656 123.5 C 58.605469 123.5 58.980469 123.976563 58.980469 124.460938 C 58.980469 124.789063 58.820313 125.144531 58.339844 125.371094 L 58.339844 125.390625 C 58.828125 125.582031 59.125 125.921875 59.125 126.398438 C 59.125 127.074219 58.542969 127.53125 57.800781 127.53125 C 56.984375 127.53125 56.492188 127.042969 56.492188 126.476563 "
       id="path234" />
    <path
       style=" stroke:none;fill-rule:nonzero;fill:rgb(25.498962%,25.099182%,25.898743%);fill-opacity:1;"
       d="M 60.210938 125.535156 C 60.210938 126.546875 60.523438 127.121094 61.003906 127.121094 C 61.542969 127.121094 61.800781 126.492188 61.800781 125.496094 C 61.800781 124.539063 61.554688 123.910156 61.007813 123.910156 C 60.546875 123.910156 60.210938 124.472656 60.210938 125.535156 M 62.328125 125.472656 C 62.328125 126.800781 61.835938 127.53125 60.972656 127.53125 C 60.210938 127.53125 59.695313 126.816406 59.683594 125.527344 C 59.683594 124.222656 60.246094 123.5 61.039063 123.5 C 61.859375 123.5 62.328125 124.230469 62.328125 125.472656 "
       id="path236" />
    <path
       style=" stroke:none;fill-rule:nonzero;fill:rgb(25.498962%,25.099182%,25.898743%);fill-opacity:1;"
       d="M 62.761719 128.203125 C 62.894531 127.847656 63.054688 127.207031 63.121094 126.769531 L 63.710938 126.707031 C 63.574219 127.21875 63.308594 127.886719 63.140625 128.164063 "
       id="path238" />
    <path
       style=" stroke:none;fill-rule:nonzero;fill:rgb(25.498962%,25.099182%,25.898743%);fill-opacity:1;"
       d="M 69.28125 125.6875 C 69.253906 125.125 69.21875 124.449219 69.222656 123.945313 L 69.203125 123.945313 C 69.066406 124.417969 68.898438 124.921875 68.695313 125.480469 L 67.980469 127.441406 L 67.585938 127.441406 L 66.929688 125.515625 C 66.738281 124.945313 66.578125 124.425781 66.464844 123.945313 L 66.453125 123.945313 C 66.441406 124.449219 66.410156 125.125 66.375 125.730469 L 66.265625 127.464844 L 65.769531 127.464844 L 66.050781 123.421875 L 66.714844 123.421875 L 67.40625 125.378906 C 67.574219 125.875 67.710938 126.320313 67.8125 126.738281 L 67.832031 126.738281 C 67.933594 126.332031 68.078125 125.886719 68.257813 125.378906 L 68.976563 123.421875 L 69.640625 123.421875 L 69.894531 127.464844 L 69.386719 127.464844 "
       id="path240" />
    <path
       style=" stroke:none;fill-rule:nonzero;fill:rgb(25.498962%,25.099182%,25.898743%);fill-opacity:1;"
       d="M 71.125 126.019531 C 71.125 126.65625 71.492188 127.132813 72.007813 127.132813 C 72.511719 127.132813 72.890625 126.660156 72.890625 126.007813 C 72.890625 125.515625 72.644531 124.890625 72.019531 124.890625 C 71.394531 124.890625 71.125 125.46875 71.125 126.019531 M 73.429688 125.988281 C 73.429688 127.0625 72.683594 127.53125 71.980469 127.53125 C 71.199219 127.53125 70.589844 126.957031 70.589844 126.039063 C 70.589844 125.066406 71.226563 124.496094 72.03125 124.496094 C 72.863281 124.496094 73.429688 125.101563 73.429688 125.988281 "
       id="path242" />
    <path
       style=" stroke:none;fill-rule:nonzero;fill:rgb(25.498962%,25.099182%,25.898743%);fill-opacity:1;"
       d="M 76.285156 127.355469 C 76.148438 127.429688 75.839844 127.523438 75.449219 127.523438 C 74.574219 127.523438 74.007813 126.929688 74.007813 126.042969 C 74.007813 125.148438 74.617188 124.503906 75.566406 124.503906 C 75.875 124.503906 76.152344 124.582031 76.296875 124.652344 L 76.175781 125.058594 C 76.050781 124.988281 75.851563 124.921875 75.566406 124.921875 C 74.898438 124.921875 74.539063 125.414063 74.539063 126.019531 C 74.539063 126.691406 74.972656 127.105469 75.546875 127.105469 C 75.847656 127.105469 76.042969 127.027344 76.195313 126.960938 "
       id="path244" />
    <path
       style=" stroke:none;fill-rule:nonzero;fill:rgb(25.498962%,25.099182%,25.898743%);fill-opacity:1;"
       d="M 77.546875 124.5625 L 77.546875 125.820313 L 77.671875 125.820313 L 78.761719 124.5625 L 79.40625 124.5625 L 78.140625 125.875 C 78.605469 125.921875 78.890625 126.234375 79.117188 126.757813 C 79.195313 126.949219 79.296875 127.230469 79.429688 127.464844 L 78.878906 127.464844 C 78.800781 127.339844 78.699219 127.109375 78.605469 126.871094 C 78.410156 126.402344 78.140625 126.1875 77.648438 126.1875 L 77.546875 126.1875 L 77.546875 127.464844 L 77.023438 127.464844 L 77.023438 124.5625 "
       id="path246" />
    <path
       style=" stroke:none;fill-rule:nonzero;fill:rgb(25.498962%,25.099182%,25.898743%);fill-opacity:1;"
       d="M 80.511719 125.777344 L 80.90625 125.777344 C 81.296875 125.777344 81.699219 125.667969 81.699219 125.324219 C 81.699219 125.035156 81.445313 124.898438 80.917969 124.898438 C 80.742188 124.898438 80.636719 124.910156 80.511719 124.921875 Z M 80.503906 127.117188 C 80.65625 127.132813 80.761719 127.140625 80.929688 127.140625 C 81.28125 127.140625 81.8125 127.054688 81.8125 126.636719 C 81.8125 126.21875 81.390625 126.128906 80.886719 126.128906 L 80.503906 126.128906 Z M 80.007813 124.597656 C 80.210938 124.5625 80.589844 124.53125 80.929688 124.53125 C 81.414063 124.53125 82.21875 124.609375 82.21875 125.257813 C 82.21875 125.617188 81.945313 125.839844 81.613281 125.910156 L 81.613281 125.925781 C 82.039063 125.984375 82.351563 126.222656 82.351563 126.644531 C 82.351563 127.40625 81.390625 127.5 80.824219 127.5 C 80.5 127.5 80.160156 127.476563 80.007813 127.464844 "
       id="path248" />
    <path
       style=" stroke:none;fill-rule:nonzero;fill:rgb(25.498962%,25.099182%,25.898743%);fill-opacity:1;"
       d="M 84.667969 125.984375 C 84.089844 125.972656 83.4375 126.074219 83.4375 126.636719 C 83.4375 126.980469 83.664063 127.140625 83.933594 127.140625 C 84.3125 127.140625 84.550781 126.902344 84.636719 126.65625 C 84.65625 126.601563 84.667969 126.542969 84.667969 126.488281 Z M 84.746094 127.464844 L 84.703125 127.097656 L 84.683594 127.097656 C 84.523438 127.328125 84.210938 127.53125 83.796875 127.53125 C 83.210938 127.53125 82.910156 127.117188 82.910156 126.695313 C 82.910156 125.996094 83.535156 125.613281 84.65625 125.617188 L 84.65625 125.558594 C 84.65625 125.316406 84.589844 124.886719 83.996094 124.886719 C 83.726563 124.886719 83.441406 124.96875 83.238281 125.101563 L 83.121094 124.753906 C 83.359375 124.597656 83.707031 124.496094 84.074219 124.496094 C 84.960938 124.496094 85.175781 125.101563 85.175781 125.683594 L 85.175781 126.769531 C 85.175781 127.019531 85.1875 127.265625 85.222656 127.464844 "
       id="path250" />
    <path
       style=" stroke:none;fill-rule:nonzero;fill:rgb(25.498962%,25.099182%,25.898743%);fill-opacity:1;"
       d="M 85.808594 128.203125 C 85.941406 127.847656 86.101563 127.207031 86.167969 126.769531 L 86.753906 126.707031 C 86.617188 127.21875 86.355469 127.886719 86.1875 128.164063 "
       id="path252" />
    <path
       style=" stroke:none;fill-rule:nonzero;fill:rgb(25.498962%,25.099182%,25.898743%);fill-opacity:1;"
       d="M 44.894531 130.558594 L 44.882813 130.558594 L 44.207031 130.925781 L 44.101563 130.523438 L 44.957031 130.066406 L 45.402344 130.066406 L 45.402344 133.964844 L 44.894531 133.964844 "
       id="path254" />
    <path
       style=" stroke:none;fill-rule:nonzero;fill:rgb(25.498962%,25.099182%,25.898743%);fill-opacity:1;"
       d="M 46.855469 132.539063 L 48.335938 132.539063 L 48.335938 132.148438 L 46.855469 132.148438 Z M 46.855469 132.539063 "
       id="path256" />
    <path
       style=" stroke:none;fill-rule:nonzero;fill:rgb(25.498962%,25.099182%,25.898743%);fill-opacity:1;"
       d="M 49.90625 129.878906 C 49.921875 130.140625 50.046875 130.335938 50.289063 130.335938 C 50.546875 130.335938 50.667969 130.144531 50.695313 129.878906 L 51.074219 129.878906 C 51.050781 130.371094 50.738281 130.625 50.277344 130.625 C 49.75 130.625 49.542969 130.292969 49.519531 129.878906 Z M 49.5625 131.0625 L 49.5625 132.285156 C 49.5625 132.746094 49.554688 133.035156 49.53125 133.449219 L 49.550781 133.453125 C 49.722656 133.101563 49.828125 132.898438 50.019531 132.5625 L 50.925781 131.0625 L 51.542969 131.0625 L 51.542969 133.964844 L 51.039063 133.964844 L 51.039063 132.734375 C 51.039063 132.261719 51.050781 132.015625 51.074219 131.546875 L 51.054688 131.546875 C 50.871094 131.917969 50.742188 132.152344 50.574219 132.445313 C 50.300781 132.898438 49.984375 133.453125 49.671875 133.964844 L 49.066406 133.964844 L 49.066406 131.0625 "
       id="path258" />
    <path
       style=" stroke:none;fill-rule:nonzero;fill:rgb(25.498962%,25.099182%,25.898743%);fill-opacity:1;"
       d="M 56.144531 133.964844 L 55.628906 133.070313 C 55.417969 132.730469 55.285156 132.507813 55.160156 132.273438 L 55.148438 132.273438 C 55.035156 132.507813 54.917969 132.722656 54.710938 133.078125 L 54.226563 133.964844 L 53.625 133.964844 L 54.859375 131.917969 L 53.671875 129.921875 L 54.277344 129.921875 L 54.8125 130.871094 C 54.960938 131.132813 55.078125 131.335938 55.183594 131.554688 L 55.203125 131.554688 C 55.316406 131.316406 55.417969 131.128906 55.566406 130.871094 L 56.121094 129.921875 L 56.71875 129.921875 L 55.488281 131.890625 L 56.75 133.964844 "
       id="path260" />
    <path
       style=" stroke:none;fill-rule:nonzero;fill:rgb(25.498962%,25.099182%,25.898743%);fill-opacity:1;"
       d="M 57.949219 132.277344 L 58.347656 132.277344 C 58.734375 132.277344 59.136719 132.167969 59.136719 131.824219 C 59.136719 131.535156 58.886719 131.398438 58.359375 131.398438 C 58.183594 131.398438 58.078125 131.410156 57.949219 131.421875 Z M 57.945313 133.617188 C 58.09375 133.632813 58.203125 133.640625 58.371094 133.640625 C 58.722656 133.640625 59.25 133.554688 59.25 133.136719 C 59.25 132.71875 58.832031 132.628906 58.328125 132.628906 L 57.945313 132.628906 Z M 57.445313 131.097656 C 57.652344 131.0625 58.027344 131.03125 58.371094 131.03125 C 58.855469 131.03125 59.660156 131.109375 59.660156 131.757813 C 59.660156 132.117188 59.382813 132.339844 59.054688 132.410156 L 59.054688 132.425781 C 59.480469 132.484375 59.792969 132.722656 59.792969 133.144531 C 59.792969 133.90625 58.832031 134 58.261719 134 C 57.9375 134 57.601563 133.976563 57.445313 133.964844 "
       id="path262" />
    <path
       style=" stroke:none;fill-rule:nonzero;fill:rgb(25.498962%,25.099182%,25.898743%);fill-opacity:1;"
       d="M 60.902344 132.519531 C 60.902344 133.15625 61.269531 133.632813 61.785156 133.632813 C 62.289063 133.632813 62.664063 133.160156 62.664063 132.507813 C 62.664063 132.015625 62.417969 131.390625 61.796875 131.390625 C 61.171875 131.390625 60.902344 131.96875 60.902344 132.519531 M 63.207031 132.488281 C 63.207031 133.5625 62.460938 134.03125 61.761719 134.03125 C 60.972656 134.03125 60.367188 133.457031 60.367188 132.539063 C 60.367188 131.566406 61.003906 130.996094 61.808594 130.996094 C 62.640625 130.996094 63.207031 131.601563 63.207031 132.488281 "
       id="path264" />
    <path
       style=" stroke:none;fill-rule:nonzero;fill:rgb(25.498962%,25.099182%,25.898743%);fill-opacity:1;"
       d="M 66.0625 133.855469 C 65.921875 133.929688 65.617188 134.023438 65.226563 134.023438 C 64.351563 134.023438 63.78125 133.429688 63.78125 132.542969 C 63.78125 131.648438 64.394531 131.003906 65.34375 131.003906 C 65.652344 131.003906 65.929688 131.082031 66.074219 131.152344 L 65.953125 131.558594 C 65.828125 131.488281 65.628906 131.421875 65.34375 131.421875 C 64.675781 131.421875 64.316406 131.914063 64.316406 132.519531 C 64.316406 133.191406 64.75 133.605469 65.324219 133.605469 C 65.625 133.605469 65.820313 133.527344 65.972656 133.460938 "
       id="path266" />
    <path
       style=" stroke:none;fill-rule:nonzero;fill:rgb(25.498962%,25.099182%,25.898743%);fill-opacity:1;"
       d="M 68.855469 131.0625 L 68.855469 131.480469 L 67.953125 131.480469 L 67.953125 133.964844 L 67.429688 133.964844 L 67.429688 131.480469 L 66.523438 131.480469 L 66.523438 131.0625 "
       id="path268" />
    <path
       style=" stroke:none;fill-rule:nonzero;fill:rgb(25.498962%,25.099182%,25.898743%);fill-opacity:1;"
       d="M 69.6875 132.519531 C 69.6875 133.15625 70.050781 133.632813 70.566406 133.632813 C 71.070313 133.632813 71.449219 133.160156 71.449219 132.507813 C 71.449219 132.015625 71.203125 131.390625 70.582031 131.390625 C 69.957031 131.390625 69.6875 131.96875 69.6875 132.519531 M 71.988281 132.488281 C 71.988281 133.5625 71.246094 134.03125 70.542969 134.03125 C 69.757813 134.03125 69.152344 133.457031 69.152344 132.539063 C 69.152344 131.566406 69.789063 130.996094 70.589844 130.996094 C 71.425781 130.996094 71.988281 131.601563 71.988281 132.488281 "
       id="path270" />
    <path
       style=" stroke:none;fill-rule:nonzero;fill:rgb(25.498962%,25.099182%,25.898743%);fill-opacity:1;"
       d="M 73.269531 132.277344 L 73.664063 132.277344 C 74.054688 132.277344 74.457031 132.167969 74.457031 131.824219 C 74.457031 131.535156 74.203125 131.398438 73.675781 131.398438 C 73.5 131.398438 73.394531 131.410156 73.269531 131.421875 Z M 73.261719 133.617188 C 73.410156 133.632813 73.519531 133.640625 73.6875 133.640625 C 74.039063 133.640625 74.570313 133.554688 74.570313 133.136719 C 74.570313 132.71875 74.148438 132.628906 73.644531 132.628906 L 73.261719 132.628906 Z M 72.765625 131.097656 C 72.96875 131.0625 73.347656 131.03125 73.6875 131.03125 C 74.171875 131.03125 74.976563 131.109375 74.976563 131.757813 C 74.976563 132.117188 74.703125 132.339844 74.371094 132.410156 L 74.371094 132.425781 C 74.796875 132.484375 75.109375 132.722656 75.109375 133.144531 C 75.109375 133.90625 74.148438 134 73.582031 134 C 73.257813 134 72.917969 133.976563 72.765625 133.964844 "
       id="path272" />
    <path
       style=" stroke:none;fill-rule:nonzero;fill:rgb(25.498962%,25.099182%,25.898743%);fill-opacity:1;"
       d="M 79.675781 131.0625 L 79.675781 133.964844 L 79.148438 133.964844 L 79.148438 131.480469 L 77.796875 131.480469 L 77.796875 133.964844 L 77.277344 133.964844 L 77.277344 131.0625 "
       id="path274" />
    <path
       style=" stroke:none;fill-rule:nonzero;fill:rgb(25.498962%,25.099182%,25.898743%);fill-opacity:1;"
       d="M 82.496094 132.230469 C 82.5 131.894531 82.355469 131.375 81.765625 131.375 C 81.230469 131.375 80.996094 131.867188 80.953125 132.230469 Z M 80.949219 132.609375 C 80.960938 133.324219 81.414063 133.617188 81.945313 133.617188 C 82.320313 133.617188 82.550781 133.550781 82.746094 133.464844 L 82.835938 133.84375 C 82.652344 133.929688 82.332031 134.023438 81.871094 134.023438 C 80.976563 134.023438 80.445313 133.4375 80.445313 132.5625 C 80.445313 131.6875 80.960938 130.996094 81.804688 130.996094 C 82.753906 130.996094 83.003906 131.832031 83.003906 132.363281 C 83.003906 132.472656 82.992188 132.554688 82.988281 132.609375 "
       id="path276" />
    <path
       style=" stroke:none;fill-rule:nonzero;fill:rgb(25.498962%,25.099182%,25.898743%);fill-opacity:1;"
       d="M 84.300781 132.78125 C 84.300781 132.859375 84.316406 132.933594 84.324219 133 C 84.421875 133.363281 84.738281 133.617188 85.117188 133.617188 C 85.675781 133.617188 86 133.160156 86 132.496094 C 86 131.914063 85.695313 131.414063 85.136719 131.414063 C 84.777344 131.414063 84.441406 131.675781 84.335938 132.070313 C 84.320313 132.136719 84.300781 132.214844 84.300781 132.285156 Z M 83.78125 132.011719 C 83.78125 131.636719 83.769531 131.339844 83.757813 131.0625 L 84.230469 131.0625 L 84.253906 131.558594 L 84.265625 131.558594 C 84.480469 131.207031 84.824219 130.996094 85.296875 130.996094 C 86 130.996094 86.527344 131.589844 86.527344 132.472656 C 86.527344 133.515625 85.890625 134.03125 85.207031 134.03125 C 84.824219 134.03125 84.488281 133.863281 84.316406 133.574219 L 84.300781 133.574219 L 84.300781 135.152344 L 83.78125 135.152344 "
       id="path278" />
    <path
       style=" stroke:none;fill-rule:nonzero;fill:rgb(25.498962%,25.099182%,25.898743%);fill-opacity:1;"
       d="M 87.1875 133.652344 C 87.1875 133.429688 87.339844 133.273438 87.546875 133.273438 C 87.757813 133.273438 87.902344 133.429688 87.902344 133.652344 C 87.902344 133.867188 87.765625 134.03125 87.542969 134.03125 C 87.332031 134.03125 87.1875 133.867188 87.1875 133.652344 "
       id="path280" />
    <path
       style=" stroke:none;fill-rule:nonzero;fill:rgb(25.498962%,25.099182%,25.898743%);fill-opacity:1;"
       d="M 88.332031 134.703125 C 88.464844 134.347656 88.628906 133.707031 88.695313 133.269531 L 89.28125 133.207031 C 89.144531 133.71875 88.878906 134.386719 88.710938 134.664063 "
       id="path282" />
    <path
       style=" stroke:none;fill-rule:nonzero;fill:rgb(25.498962%,25.099182%,25.898743%);fill-opacity:1;"
       d="M 92.40625 130.558594 L 92.394531 130.558594 L 91.71875 130.925781 L 91.617188 130.523438 L 92.46875 130.066406 L 92.917969 130.066406 L 92.917969 133.964844 L 92.40625 133.964844 "
       id="path284" />
    <path
       style=" stroke:none;fill-rule:nonzero;fill:rgb(25.498962%,25.099182%,25.898743%);fill-opacity:1;"
       d="M 95.605469 130.558594 L 95.59375 130.558594 L 94.914063 130.925781 L 94.8125 130.523438 L 95.664063 130.066406 L 96.113281 130.066406 L 96.113281 133.964844 L 95.605469 133.964844 "
       id="path286" />
    <path
       style=" stroke:none;fill-rule:nonzero;fill:rgb(25.498962%,25.099182%,25.898743%);fill-opacity:1;"
       d="M 99.355469 132.484375 C 98.78125 132.472656 98.125 132.574219 98.125 133.136719 C 98.125 133.480469 98.355469 133.640625 98.625 133.640625 C 99 133.640625 99.242188 133.402344 99.324219 133.15625 C 99.34375 133.101563 99.355469 133.042969 99.355469 132.988281 Z M 99.433594 133.964844 L 99.390625 133.597656 L 99.375 133.597656 C 99.210938 133.828125 98.898438 134.03125 98.484375 134.03125 C 97.898438 134.03125 97.597656 133.617188 97.597656 133.195313 C 97.597656 132.496094 98.222656 132.113281 99.34375 132.117188 L 99.34375 132.058594 C 99.34375 131.816406 99.277344 131.386719 98.683594 131.386719 C 98.414063 131.386719 98.132813 131.46875 97.929688 131.601563 L 97.808594 131.253906 C 98.046875 131.097656 98.394531 130.996094 98.761719 130.996094 C 99.648438 130.996094 99.863281 131.601563 99.863281 132.183594 L 99.863281 133.269531 C 99.863281 133.519531 99.875 133.765625 99.914063 133.964844 "
       id="path288" />
    <path
       style=" stroke:none;fill-rule:nonzero;fill:rgb(25.498962%,25.099182%,25.898743%);fill-opacity:1;"
       d="M 44.320313 138.246094 L 44.625 139.570313 C 44.691406 139.882813 44.757813 140.199219 44.808594 140.515625 L 44.824219 140.515625 C 44.882813 140.199219 44.976563 139.875 45.0625 139.574219 L 45.441406 138.246094 L 46.039063 138.246094 L 46.40625 139.539063 C 46.496094 139.882813 46.574219 140.199219 46.640625 140.515625 L 46.652344 140.515625 C 46.699219 140.199219 46.765625 139.882813 46.84375 139.539063 L 47.167969 138.246094 L 47.894531 138.246094 L 46.972656 141.164063 L 46.292969 141.164063 L 45.945313 139.976563 C 45.855469 139.671875 45.789063 139.394531 45.722656 139.042969 L 45.710938 139.042969 C 45.648438 139.402344 45.570313 139.6875 45.488281 139.976563 L 45.117188 141.164063 L 44.425781 141.164063 L 43.5625 138.246094 "
       id="path290" />
    <path
       style=" stroke:none;fill-rule:nonzero;fill:rgb(25.498962%,25.099182%,25.898743%);fill-opacity:1;"
       d="M 49.027344 138.246094 L 49.335938 139.570313 C 49.398438 139.882813 49.464844 140.199219 49.519531 140.515625 L 49.53125 140.515625 C 49.59375 140.199219 49.6875 139.875 49.773438 139.574219 L 50.148438 138.246094 L 50.75 138.246094 L 51.117188 139.539063 C 51.207031 139.882813 51.285156 140.199219 51.347656 140.515625 L 51.359375 140.515625 C 51.410156 140.199219 51.472656 139.882813 51.550781 139.539063 L 51.878906 138.246094 L 52.601563 138.246094 L 51.683594 141.164063 L 51.003906 141.164063 L 50.652344 139.976563 C 50.5625 139.671875 50.496094 139.394531 50.429688 139.042969 L 50.417969 139.042969 C 50.359375 139.402344 50.28125 139.6875 50.199219 139.976563 L 49.824219 141.164063 L 49.136719 141.164063 L 48.273438 138.246094 "
       id="path292" />
    <path
       style=" stroke:none;fill-rule:nonzero;fill:rgb(25.498962%,25.099182%,25.898743%);fill-opacity:1;"
       d="M 53.738281 138.246094 L 54.042969 139.570313 C 54.109375 139.882813 54.175781 140.199219 54.230469 140.515625 L 54.242188 140.515625 C 54.300781 140.199219 54.398438 139.875 54.480469 139.574219 L 54.859375 138.246094 L 55.460938 138.246094 L 55.824219 139.539063 C 55.914063 139.882813 55.992188 140.199219 56.058594 140.515625 L 56.070313 140.515625 C 56.121094 140.199219 56.183594 139.882813 56.261719 139.539063 L 56.585938 138.246094 L 57.3125 138.246094 L 56.394531 141.164063 L 55.710938 141.164063 L 55.363281 139.976563 C 55.273438 139.671875 55.207031 139.394531 55.140625 139.042969 L 55.128906 139.042969 C 55.070313 139.402344 54.992188 139.6875 54.90625 139.976563 L 54.535156 141.164063 L 53.84375 141.164063 L 52.984375 138.246094 "
       id="path294" />
    <path
       style=" stroke:none;fill-rule:nonzero;fill:rgb(25.498962%,25.099182%,25.898743%);fill-opacity:1;"
       d="M 57.554688 140.757813 C 57.554688 140.480469 57.746094 140.28125 58.011719 140.28125 C 58.28125 140.28125 58.464844 140.476563 58.464844 140.757813 C 58.464844 141.027344 58.285156 141.230469 58.011719 141.230469 C 57.742188 141.230469 57.554688 141.027344 57.554688 140.757813 "
       id="path296" />
    <path
       style=" stroke:none;fill-rule:nonzero;fill:rgb(25.498962%,25.099182%,25.898743%);fill-opacity:1;"
       d="M 59.265625 141.164063 L 59.265625 138.796875 L 58.867188 138.796875 L 58.867188 138.246094 L 59.265625 138.246094 L 59.265625 138.105469 C 59.265625 137.320313 59.808594 136.84375 60.679688 136.84375 C 60.96875 136.84375 61.316406 136.917969 61.484375 137.027344 L 61.320313 137.585938 C 61.183594 137.507813 60.957031 137.429688 60.679688 137.429688 C 60.164063 137.429688 59.996094 137.742188 59.996094 138.125 L 59.996094 138.246094 L 61.742188 138.246094 L 61.742188 141.164063 L 60.996094 141.164063 L 60.996094 138.796875 L 60.003906 138.796875 L 60.003906 141.164063 "
       id="path298" />
    <path
       style=" stroke:none;fill-rule:nonzero;fill:rgb(25.498962%,25.099182%,25.898743%);fill-opacity:1;"
       d="M 62.652344 139.113281 C 62.652344 138.777344 62.648438 138.496094 62.632813 138.246094 L 63.277344 138.246094 L 63.3125 138.683594 L 63.332031 138.683594 C 63.457031 138.453125 63.777344 138.179688 64.261719 138.179688 C 64.769531 138.179688 65.296875 138.507813 65.296875 139.429688 L 65.296875 141.164063 L 64.5625 141.164063 L 64.5625 139.515625 C 64.5625 139.09375 64.40625 138.777344 64.003906 138.777344 C 63.710938 138.777344 63.507813 138.988281 63.425781 139.210938 C 63.402344 139.277344 63.398438 139.367188 63.398438 139.449219 L 63.398438 141.164063 L 62.652344 141.164063 "
       id="path300" />
    <path
       style=" stroke:none;fill-rule:nonzero;fill:rgb(25.498962%,25.099182%,25.898743%);fill-opacity:1;"
       d="M 67.023438 137.410156 L 67.023438 138.246094 L 67.722656 138.246094 L 67.722656 138.796875 L 67.023438 138.796875 L 67.023438 140.085938 C 67.023438 140.4375 67.117188 140.625 67.398438 140.625 C 67.527344 140.625 67.621094 140.605469 67.6875 140.589844 L 67.699219 141.152344 C 67.589844 141.195313 67.398438 141.222656 67.164063 141.222656 C 66.894531 141.222656 66.667969 141.136719 66.53125 140.984375 C 66.375 140.816406 66.300781 140.554688 66.300781 140.171875 L 66.300781 138.796875 L 65.882813 138.796875 L 65.882813 138.246094 L 66.300781 138.246094 L 66.300781 137.585938 "
       id="path302" />
    <path
       style=" stroke:none;fill-rule:nonzero;fill:rgb(25.498962%,25.099182%,25.898743%);fill-opacity:1;"
       d="M 70.171875 139.394531 C 70.179688 139.125 70.058594 138.683594 69.566406 138.683594 C 69.109375 138.683594 68.917969 139.09375 68.890625 139.394531 Z M 68.890625 139.914063 C 68.90625 140.4375 69.320313 140.667969 69.789063 140.667969 C 70.128906 140.667969 70.375 140.621094 70.597656 140.535156 L 70.707031 141.042969 C 70.453125 141.148438 70.105469 141.222656 69.6875 141.222656 C 68.738281 141.222656 68.179688 140.644531 68.179688 139.75 C 68.179688 138.941406 68.671875 138.179688 69.609375 138.179688 C 70.554688 138.179688 70.867188 138.957031 70.867188 139.597656 C 70.867188 139.738281 70.855469 139.84375 70.84375 139.914063 "
       id="path304" />
    <path
       style=" stroke:none;fill-rule:nonzero;fill:rgb(25.498962%,25.099182%,25.898743%);fill-opacity:1;"
       d="M 73.730469 141.074219 C 73.574219 141.148438 73.269531 141.222656 72.902344 141.222656 C 71.992188 141.222656 71.398438 140.644531 71.398438 139.738281 C 71.398438 138.863281 71.996094 138.179688 73.023438 138.179688 C 73.292969 138.179688 73.566406 138.238281 73.734375 138.316406 L 73.605469 138.867188 C 73.484375 138.8125 73.308594 138.753906 73.046875 138.753906 C 72.480469 138.753906 72.148438 139.167969 72.152344 139.703125 C 72.152344 140.300781 72.542969 140.644531 73.046875 140.644531 C 73.304688 140.644531 73.484375 140.589844 73.628906 140.527344 "
       id="path306" />
    <path
       style=" stroke:none;fill-rule:nonzero;fill:rgb(25.498962%,25.099182%,25.898743%);fill-opacity:1;"
       d="M 74.394531 136.90625 L 75.140625 136.90625 L 75.140625 138.644531 L 75.152344 138.644531 C 75.242188 138.507813 75.363281 138.394531 75.519531 138.308594 C 75.660156 138.226563 75.835938 138.179688 76.019531 138.179688 C 76.519531 138.179688 77.039063 138.507813 77.039063 139.445313 L 77.039063 141.164063 L 76.304688 141.164063 L 76.304688 139.527344 C 76.304688 139.101563 76.148438 138.785156 75.738281 138.785156 C 75.453125 138.785156 75.246094 138.976563 75.167969 139.199219 C 75.144531 139.257813 75.140625 139.335938 75.140625 139.421875 L 75.140625 141.164063 L 74.394531 141.164063 "
       id="path308" />
    <path
       style=" stroke:none;fill-rule:nonzero;fill:rgb(25.498962%,25.099182%,25.898743%);fill-opacity:1;"
       d="M 77.859375 140.757813 C 77.859375 140.480469 78.050781 140.28125 78.3125 140.28125 C 78.585938 140.28125 78.769531 140.476563 78.769531 140.757813 C 78.769531 141.027344 78.589844 141.230469 78.3125 141.230469 C 78.042969 141.230469 77.859375 141.027344 77.859375 140.757813 "
       id="path310" />
    <path
       style=" stroke:none;fill-rule:nonzero;fill:rgb(25.498962%,25.099182%,25.898743%);fill-opacity:1;"
       d="M 79.484375 139.1875 C 79.484375 138.789063 79.476563 138.507813 79.460938 138.246094 L 80.101563 138.246094 L 80.125 138.800781 L 80.148438 138.800781 C 80.292969 138.386719 80.636719 138.179688 80.949219 138.179688 C 81.019531 138.179688 81.0625 138.183594 81.121094 138.195313 L 81.121094 138.890625 C 81.0625 138.878906 80.996094 138.867188 80.90625 138.867188 C 80.550781 138.867188 80.3125 139.09375 80.246094 139.425781 C 80.234375 139.492188 80.222656 139.570313 80.222656 139.652344 L 80.222656 141.164063 L 79.484375 141.164063 "
       id="path312" />
    <path
       style=" stroke:none;fill-rule:nonzero;fill:rgb(25.498962%,25.099182%,25.898743%);fill-opacity:1;"
       d="M 84.355469 140.289063 C 84.355469 140.636719 84.367188 140.925781 84.378906 141.164063 L 83.730469 141.164063 L 83.695313 140.722656 L 83.683594 140.722656 C 83.558594 140.933594 83.269531 141.230469 82.746094 141.230469 C 82.214844 141.230469 81.726563 140.914063 81.726563 139.960938 L 81.726563 138.246094 L 82.464844 138.246094 L 82.464844 139.832031 C 82.464844 140.320313 82.621094 140.632813 83.011719 140.632813 C 83.304688 140.632813 83.496094 140.421875 83.574219 140.234375 C 83.597656 140.167969 83.617188 140.09375 83.617188 140.007813 L 83.617188 138.246094 L 84.355469 138.246094 "
       id="path314" />
    <path
       style=" stroke:none;fill-rule:nonzero;fill:rgb(7.099915%,30.599976%,54.899597%);fill-opacity:1;"
       d="M 39.476563 133.425781 C 39.476563 135.453125 37.835938 137.09375 35.808594 137.09375 C 33.78125 137.09375 32.136719 135.453125 32.136719 133.425781 C 32.136719 131.398438 33.78125 129.757813 35.808594 129.757813 C 37.835938 129.757813 39.476563 131.398438 39.476563 133.425781 "
       id="path316" />
    <path
       style=" stroke:none;fill-rule:nonzero;fill:rgb(100%,100%,100%);fill-opacity:1;"
       d="M 37.320313 133.425781 C 37.320313 134.261719 36.644531 134.9375 35.808594 134.9375 C 34.972656 134.9375 34.296875 134.261719 34.296875 133.425781 C 34.296875 132.589844 34.972656 131.914063 35.808594 131.914063 C 36.644531 131.914063 37.320313 132.589844 37.320313 133.425781 "
       id="path318" />
    <path
       style=" stroke:none;fill-rule:nonzero;fill:rgb(7.099915%,30.599976%,54.899597%);fill-opacity:1;"
       d="M 32.59375 135.199219 L 35.808594 141.09375 L 39.019531 135.199219 "
       id="path320" />
  
  </g>
</svg>
